<?xml version="1.0" encoding="UTF-8"?>
<svg width="32px" height="32px" viewBox="0 0 32 32" version="1.1" xmlns="http://www.w3.org/2000/svg" xmlns:xlink="http://www.w3.org/1999/xlink">
    <!-- Generator: sketchtool 50.2 (55047) - http://www.bohemiancoding.com/sketch -->
    <title>9C8E799F-E428-4979-8A46-2304946ECD35</title>
    <desc>Created with sketchtool.</desc>
    <defs></defs>
    <g id="Page-2" stroke="none" stroke-width="1" fill="none" fill-rule="evenodd">
        <g id="blog-home" transform="translate(-772.000000, -1123.000000)">
            <g id="Group-12" transform="translate(73.000000, 1118.000000)">
                <g id="Group-24" transform="translate(699.000000, 0.000000)">
                    <g id="Group-10" transform="translate(0.000000, 5.000000)">
                        <g id="Group-29">
                            <g id="facebook-btn">
                                <g id="Rectangle-24-+-facebook31-Copy">
                                    <rect id="Rectangle-24" fill="#386CC7" x="0" y="0" width="32" height="32" rx="16"></rect>
                                    <g id="facebook31-copy" transform="translate(12.000000, 8.000000)" fill="#FFFFFF">
                                        <path d="M1.59687369,3.07725879 L1.59687369,5.26488316 L0.025213223,5.26488316 L0.025213223,7.93991874 L1.59687369,7.93991874 L1.59687369,15.8891838 L4.82539792,15.8891838 L4.82539792,7.94014039 L6.99188758,7.94014039 C6.99188758,7.94014039 7.19478882,6.6574813 7.29314212,5.25501968 L4.83760604,5.25501968 L4.83760604,3.42599015 C4.83760604,3.15262023 5.18961307,2.78490073 5.53752656,2.78490073 L7.29654736,2.78490073 L7.29654736,3.69418824e-05 L4.90487753,3.69418824e-05 C1.51706804,-0.000147767528 1.59687369,2.67754762 1.59687369,3.07725879 L1.59687369,3.07725879 Z" id="Facebook"></path>
                                    </g>
                                </g>
                            </g>
                        </g>
                    </g>
                </g>
            </g>
        </g>
    </g>
</svg>