<?xml version="1.0" encoding="UTF-8"?>
<svg width="32px" height="32px" viewBox="0 0 32 32" version="1.1" xmlns="http://www.w3.org/2000/svg" xmlns:xlink="http://www.w3.org/1999/xlink">
    <!-- Generator: sketchtool 50.2 (55047) - http://www.bohemiancoding.com/sketch -->
    <title>D88C40F3-CF86-45A2-9DAB-EBF4678F8395</title>
    <desc>Created with sketchtool.</desc>
    <defs></defs>
    <g id="Page-2" stroke="none" stroke-width="1" fill="none" fill-rule="evenodd">
        <g id="blog-home" transform="translate(-868.000000, -1123.000000)">
            <g id="Group-12" transform="translate(73.000000, 1118.000000)">
                <g id="Group-24" transform="translate(699.000000, 0.000000)">
                    <g id="Group-10" transform="translate(0.000000, 5.000000)">
                        <g id="Group-29">
                            <g id="instagram-btn" transform="translate(96.000000, 0.000000)">
                                <g id="Rectangle-24-Copy-+-instagram12-Copy">
                                    <rect id="Rectangle-24-Copy" fill="#E33269" x="0" y="0" width="32" height="32" rx="16"></rect>
                                    <path d="M16.3616451,8.53641414 C18.5943159,8.53641414 18.8587539,8.54507914 19.7404574,8.58610254 C20.5557111,8.62404579 20.9984548,8.76295669 21.2931304,8.87969736 C21.6833981,9.03438128 21.9619757,9.21918965 22.2545603,9.51755699 C22.5471449,9.81592434 22.7283714,10.100008 22.8800241,10.497989 C22.9945354,10.7984888 23.130754,11.2499831 23.1679618,12.0813161 C23.2081901,12.9804798 23.2166872,13.2501444 23.2166872,15.5269428 C23.2166872,17.8037412 23.2081901,18.0734057 23.1679618,18.9725356 C23.130754,19.8039024 22.9945354,20.2553967 22.8800241,20.5558965 C22.7283714,20.9538776 22.5471449,21.2379612 22.2545603,21.5363285 C21.9619757,21.8346959 21.6833981,22.0195042 21.2931304,22.1741543 C20.9984548,22.2909288 20.5557111,22.4298397 19.7404574,22.467783 C18.8588867,22.5088064 18.5944486,22.5174714 16.3616451,22.5174714 C14.1288416,22.5174714 13.8644036,22.5088064 12.9828328,22.467783 C12.1675791,22.4298397 11.7248354,22.2909288 11.430193,22.1741543 C11.0398921,22.0195042 10.7613145,21.8346959 10.4687299,21.5363285 C10.1761454,21.2379612 9.99491885,20.9538776 9.84326611,20.5558965 C9.72875486,20.2553967 9.59253625,19.8039024 9.55532839,18.9725694 C9.51510009,18.0734057 9.50660302,17.8037412 9.50660302,15.5269428 C9.50660302,13.2501444 9.51510009,12.9804798 9.55532839,12.0813499 C9.59253625,11.2499831 9.72875486,10.7984888 9.84326611,10.497989 C9.99491885,10.100008 10.1761454,9.81592434 10.4687299,9.51755699 C10.7613145,9.21918965 11.0398921,9.03438128 11.430193,8.87969736 C11.7248354,8.76295669 12.1675791,8.62404579 12.9827996,8.58610254 C13.8645363,8.54507914 14.1289743,8.53641414 16.3616451,8.53641414 M16.3616451,7 C18.6325527,7 18.917304,7.00981583 19.8091309,7.05131309 C20.6991655,7.09274266 21.3069714,7.2368661 21.8388678,7.44766949 C22.388721,7.66558089 22.8550308,7.95714485 23.3198801,8.43118168 C23.7847294,8.90521852 24.0706424,9.38074465 24.2843304,9.94146541 C24.4910481,10.4838746 24.6323782,11.1036934 24.6730048,12.0113191 C24.7136978,12.9207725 24.7233234,13.2111518 24.7233234,15.5269428 C24.7233234,17.8427337 24.7136978,18.133113 24.6730048,19.0425665 C24.6323782,19.9501921 24.4910481,20.570011 24.2843304,21.1124201 C24.0706424,21.6731409 23.7847294,22.148667 23.3198801,22.6227038 C22.8550308,23.0967407 22.388721,23.3883046 21.8388678,23.606216 C21.3069714,23.8170194 20.6991655,23.9611429 19.8091309,24.0025724 C18.917304,24.0440697 18.6325527,24.0538517 16.3616451,24.0538517 C14.0907375,24.0538517 13.8060194,24.0440697 12.9141593,24.0025724 C12.0241247,23.9611429 11.4163189,23.8170194 10.8844224,23.606216 C10.3345692,23.3883046 9.86825944,23.0967407 9.40341012,22.6227038 C8.93856081,22.148667 8.65264778,21.673107 8.43895981,21.1124201 C8.2322421,20.570011 8.09091198,19.9501921 8.05028538,19.0425665 C8.00959239,18.133113 8,17.8427337 8,15.5269428 C8,13.2111518 8.00959239,12.9207725 8.05028538,12.0113191 C8.09091198,11.1036934 8.2322421,10.4838746 8.43895981,9.94146541 C8.65264778,9.38074465 8.93856081,8.90521852 9.40341012,8.43118168 C9.86825944,7.95714485 10.3345692,7.66558089 10.8844224,7.44766949 C11.4163189,7.2368661 12.0241247,7.09274266 12.9141593,7.05131309 C13.8060194,7.00981583 14.0907375,7 16.3616451,7 Z M16.3616451,11.1482369 C13.9902332,11.1482369 12.0678049,13.108661 12.0678049,15.5269428 C12.0678049,17.9452245 13.9902332,19.9056486 16.3616451,19.9056486 C18.7330571,19.9056486 20.6554853,17.9452245 20.6554853,15.5269428 C20.6554853,13.108661 18.7330571,11.1482369 16.3616451,11.1482369 Z M16.3616451,18.3692683 C14.8223151,18.3692683 13.5744079,17.0966969 13.5744079,15.5269428 C13.5744079,13.9571887 14.8223151,12.6846172 16.3616451,12.6846172 C17.9009751,12.6846172 19.1488823,13.9571887 19.1488823,15.5269428 C19.1488823,17.0966969 17.9009751,18.3692683 16.3616451,18.3692683 Z M21.828512,10.9752414 C21.828512,10.4101205 21.379296,9.95202588 20.8251279,9.95202588 C20.2709598,9.95202588 19.8217106,10.4101205 19.8217106,10.9752414 C19.8217106,11.5403624 20.2709598,11.9984908 20.8251279,11.9984908 C21.379296,11.9984908 21.828512,11.5403624 21.828512,10.9752414 Z" id="Combined-Shape" fill="#FFFFFF"></path>
                                </g>
                            </g>
                        </g>
                    </g>
                </g>
            </g>
        </g>
    </g>
</svg>