<?xml version="1.0" encoding="UTF-8"?>
<svg width="32px" height="32px" viewBox="0 0 32 32" version="1.1" xmlns="http://www.w3.org/2000/svg" xmlns:xlink="http://www.w3.org/1999/xlink">
    <!-- Generator: sketchtool 50.2 (55047) - http://www.bohemiancoding.com/sketch -->
    <title>52E48786-37D0-4F94-8611-84ED77A5DACD</title>
    <desc>Created with sketchtool.</desc>
    <defs></defs>
    <g id="Page-2" stroke="none" stroke-width="1" fill="none" fill-rule="evenodd">
        <g id="blog-home" transform="translate(-820.000000, -1123.000000)">
            <g id="Group-12" transform="translate(73.000000, 1118.000000)">
                <g id="Group-24" transform="translate(699.000000, 0.000000)">
                    <g id="Group-10" transform="translate(0.000000, 5.000000)">
                        <g id="Group-29">
                            <g id="twitter-btn" transform="translate(48.000000, 0.000000)">
                                <g id="Rectangle-24-Copy-2-+-Shape-Copy">
                                    <rect id="Rectangle-24-Copy-2" fill="#43C5F1" x="0" y="0" width="32" height="32" rx="16"></rect>
                                    <path d="M23.6133608,11.5302009 C23.0387015,11.7898696 22.4221003,11.9659739 21.7742468,12.0445952 C22.4357492,11.6406401 22.9421128,10.9999106 23.1821048,10.2387776 C22.5616003,10.612866 21.8766777,10.8845023 21.1468795,11.0317545 C20.5624745,10.3959941 19.7312148,10 18.8092086,10 C17.0403548,10 15.6061428,11.4625585 15.6061428,13.2653842 C15.6061428,13.5210724 15.6344357,13.7708029 15.6890825,14.0096066 C13.0275104,13.8732811 10.6674144,12.5729083 9.08783463,10.5969441 C8.81171751,11.0785058 8.6546397,11.6396254 8.6546397,12.2385988 C8.6546397,13.3718429 9.2205229,14.3717535 10.0791061,14.9567561 C9.55419525,14.9388569 9.0605112,14.7916046 8.62831124,14.5468432 L8.62831124,14.5876368 C8.62831124,16.1695841 9.73275423,17.4898594 11.197198,17.7903477 C10.9288876,17.8639738 10.6459587,17.9047674 10.3532588,17.9047674 C10.1464324,17.9047674 9.94641781,17.8838763 9.75030653,17.8440714 C10.158117,19.142467 11.3406269,20.0866506 12.7416732,20.1125368 C11.6460063,20.9880895 10.2644768,21.5084416 8.7639334,21.5084416 C8.50539409,21.5084416 8.25073262,21.4925196 8,21.4636675 C9.41762915,22.3919552 11.1006348,22.9331984 12.9094916,22.9331984 C18.8014529,22.9331984 22.0220965,17.9565138 22.0220965,13.6404872 L22.011356,13.2176443 C22.6406367,12.7599395 23.1850387,12.1848751 23.6133608,11.5302009 L23.6133608,11.5302009 Z" id="Shape" fill="#FFFFFF"></path>
                                </g>
                            </g>
                        </g>
                    </g>
                </g>
            </g>
        </g>
    </g>
</svg>