<?xml version="1.0" encoding="UTF-8"?>
<svg width="32px" height="32px" viewBox="0 0 32 32" version="1.1" xmlns="http://www.w3.org/2000/svg" xmlns:xlink="http://www.w3.org/1999/xlink">
    <!-- Generator: sketchtool 50.2 (55047) - http://www.bohemiancoding.com/sketch -->
    <title>52EAB162-94E3-4386-8856-766943221686</title>
    <desc>Created with sketchtool.</desc>
    <defs></defs>
    <g id="Page-2" stroke="none" stroke-width="1" fill="none" fill-rule="evenodd">
        <g id="blog-home" transform="translate(-916.000000, -1123.000000)">
            <g id="Group-12" transform="translate(73.000000, 1118.000000)">
                <g id="Group-24" transform="translate(699.000000, 0.000000)">
                    <g id="Group-10" transform="translate(0.000000, 5.000000)">
                        <g id="Group-29">
                            <g id="youtube-btn" transform="translate(144.000000, 0.000000)">
                                <g id="Group-2-Copy">
                                    <rect id="Rectangle-24-Copy" fill="#DF192A" x="0" y="0" width="32" height="32" rx="16"></rect>
                                    <g id="youtube17" transform="translate(7.500000, 10.000000)" fill="#FFFFFF">
                                        <g id="Capa_1">
                                            <path d="M16.7286009,2.64569756 C16.7286009,1.23679443 15.6094575,0.0947735192 14.2286044,0.0947735192 L2.49999647,0.0947735192 C1.1191434,0.0947735192 0,1.23679443 0,2.64569756 L0,9.48531289 C0,10.894216 1.1191434,12.0362369 2.49999647,12.0362369 L14.2286044,12.0362369 C15.6094575,12.0362369 16.7286009,10.894216 16.7286009,9.48531289 L16.7286009,2.64569756 L16.7286009,2.64569756 Z M6.69144035,8.95135889 L6.69144035,2.52666202 L11.468757,5.73891568 L6.69144035,8.95135889 L6.69144035,8.95135889 Z" id="YouTube__x28_alt_x29_"></path>
                                        </g>
                                    </g>
                                </g>
                            </g>
                        </g>
                    </g>
                </g>
            </g>
        </g>
    </g>
</svg>